<mxfile host="app.diagrams.net" modified="2023-07-11T10:19:07.135Z" agent="Mozilla/5.0 (Macintosh; Intel Mac OS X 10_15_7) AppleWebKit/537.36 (KHTML, like Gecko) Chrome/113.0.0.0 Safari/537.36" etag="gsDqjxgiSPTWUBykzsxL" version="21.5.2" type="github">
  <diagram name="Page-1" id="2YBvvXClWsGukQMizWep">
    <mxGraphModel dx="998" dy="579" grid="1" gridSize="10" guides="1" tooltips="1" connect="1" arrows="1" fold="1" page="1" pageScale="1" pageWidth="850" pageHeight="1100" math="0" shadow="0">
      <root>
        <mxCell id="0" />
        <mxCell id="1" parent="0" />
        <mxCell id="ti7OjyQPhwodmMIkzD1--45" value="response BAD REQUEST" style="html=1;verticalAlign=bottom;endArrow=open;dashed=1;endSize=8;edgeStyle=elbowEdgeStyle;elbow=vertical;curved=0;rounded=0;" edge="1" parent="1">
          <mxGeometry x="0.1478" relative="1" as="geometry">
            <mxPoint x="615" y="480" as="sourcePoint" />
            <mxPoint x="452.0454545454545" y="480" as="targetPoint" />
            <mxPoint as="offset" />
            <Array as="points">
              <mxPoint x="625" y="480" />
            </Array>
          </mxGeometry>
        </mxCell>
        <mxCell id="ti7OjyQPhwodmMIkzD1--24" value="return select query result" style="html=1;verticalAlign=bottom;endArrow=open;dashed=1;endSize=8;edgeStyle=elbowEdgeStyle;elbow=vertical;curved=0;rounded=0;" edge="1" parent="1">
          <mxGeometry x="-0.0942" relative="1" as="geometry">
            <mxPoint x="810" y="419.2413793103449" as="sourcePoint" />
            <mxPoint x="629" y="419.1" as="targetPoint" />
            <mxPoint as="offset" />
          </mxGeometry>
        </mxCell>
        <mxCell id="ti7OjyQPhwodmMIkzD1--9" value="submit signup form" style="html=1;verticalAlign=bottom;startArrow=oval;endArrow=block;startSize=8;edgeStyle=elbowEdgeStyle;elbow=vertical;curved=0;rounded=0;" edge="1" parent="1" source="ti7OjyQPhwodmMIkzD1--5" target="aM9ryv3xv72pqoxQDRHE-2">
          <mxGeometry x="0.0116" relative="1" as="geometry">
            <mxPoint x="278.99999999999994" y="234.0188679245283" as="sourcePoint" />
            <mxPoint x="450" y="234" as="targetPoint" />
            <Array as="points" />
            <mxPoint as="offset" />
          </mxGeometry>
        </mxCell>
        <mxCell id="aM9ryv3xv72pqoxQDRHE-3" value="write down signup form" style="html=1;verticalAlign=bottom;startArrow=oval;endArrow=block;startSize=8;edgeStyle=elbowEdgeStyle;elbow=vertical;curved=0;rounded=0;" parent="1" target="ti7OjyQPhwodmMIkzD1--7" edge="1">
          <mxGeometry x="0.0208" relative="1" as="geometry">
            <mxPoint x="134" y="230" as="sourcePoint" />
            <mxPoint x="267.5" y="229.82352941176475" as="targetPoint" />
            <Array as="points" />
            <mxPoint as="offset" />
          </mxGeometry>
        </mxCell>
        <mxCell id="aM9ryv3xv72pqoxQDRHE-1" value="FrontEnd" style="shape=umlLifeline;perimeter=lifelinePerimeter;whiteSpace=wrap;html=1;container=0;dropTarget=0;collapsible=0;recursiveResize=0;outlineConnect=0;portConstraint=eastwest;newEdgeStyle={&quot;edgeStyle&quot;:&quot;elbowEdgeStyle&quot;,&quot;elbow&quot;:&quot;vertical&quot;,&quot;curved&quot;:0,&quot;rounded&quot;:0};" parent="1" vertex="1">
          <mxGeometry x="397" y="160" width="100" height="460" as="geometry" />
        </mxCell>
        <mxCell id="aM9ryv3xv72pqoxQDRHE-2" value="" style="html=1;points=[];perimeter=orthogonalPerimeter;outlineConnect=0;targetShapes=umlLifeline;portConstraint=eastwest;newEdgeStyle={&quot;edgeStyle&quot;:&quot;elbowEdgeStyle&quot;,&quot;elbow&quot;:&quot;vertical&quot;,&quot;curved&quot;:0,&quot;rounded&quot;:0};" parent="aM9ryv3xv72pqoxQDRHE-1" vertex="1">
          <mxGeometry x="45" y="60" width="10" height="40" as="geometry" />
        </mxCell>
        <mxCell id="ti7OjyQPhwodmMIkzD1--10" value="" style="html=1;points=[];perimeter=orthogonalPerimeter;outlineConnect=0;targetShapes=umlLifeline;portConstraint=eastwest;newEdgeStyle={&quot;edgeStyle&quot;:&quot;elbowEdgeStyle&quot;,&quot;elbow&quot;:&quot;vertical&quot;,&quot;curved&quot;:0,&quot;rounded&quot;:0};" vertex="1" parent="aM9ryv3xv72pqoxQDRHE-1">
          <mxGeometry x="45" y="194" width="10" height="53" as="geometry" />
        </mxCell>
        <mxCell id="ti7OjyQPhwodmMIkzD1--11" value="validate submitted values" style="html=1;align=left;spacingLeft=2;endArrow=block;rounded=0;edgeStyle=orthogonalEdgeStyle;curved=0;rounded=0;" edge="1" parent="aM9ryv3xv72pqoxQDRHE-1">
          <mxGeometry x="-0.5878" relative="1" as="geometry">
            <mxPoint x="54.999999999999886" y="86.0344827586207" as="sourcePoint" />
            <Array as="points">
              <mxPoint x="83" y="86" />
              <mxPoint x="83" y="196" />
            </Array>
            <mxPoint x="54.999999999999886" y="196.0344827586207" as="targetPoint" />
            <mxPoint as="offset" />
          </mxGeometry>
        </mxCell>
        <mxCell id="ti7OjyQPhwodmMIkzD1--18" value="" style="html=1;points=[];perimeter=orthogonalPerimeter;outlineConnect=0;targetShapes=umlLifeline;portConstraint=eastwest;newEdgeStyle={&quot;edgeStyle&quot;:&quot;elbowEdgeStyle&quot;,&quot;elbow&quot;:&quot;vertical&quot;,&quot;curved&quot;:0,&quot;rounded&quot;:0};" vertex="1" parent="aM9ryv3xv72pqoxQDRHE-1">
          <mxGeometry x="45" y="130" width="10" height="30" as="geometry" />
        </mxCell>
        <mxCell id="aM9ryv3xv72pqoxQDRHE-5" value="BackEnd" style="shape=umlLifeline;perimeter=lifelinePerimeter;whiteSpace=wrap;html=1;container=0;dropTarget=0;collapsible=0;recursiveResize=0;outlineConnect=0;portConstraint=eastwest;newEdgeStyle={&quot;edgeStyle&quot;:&quot;elbowEdgeStyle&quot;,&quot;elbow&quot;:&quot;vertical&quot;,&quot;curved&quot;:0,&quot;rounded&quot;:0};" parent="1" vertex="1">
          <mxGeometry x="573" y="160" width="100" height="460" as="geometry" />
        </mxCell>
        <mxCell id="aM9ryv3xv72pqoxQDRHE-6" value="" style="html=1;points=[];perimeter=orthogonalPerimeter;outlineConnect=0;targetShapes=umlLifeline;portConstraint=eastwest;newEdgeStyle={&quot;edgeStyle&quot;:&quot;elbowEdgeStyle&quot;,&quot;elbow&quot;:&quot;vertical&quot;,&quot;curved&quot;:0,&quot;rounded&quot;:0};" parent="aM9ryv3xv72pqoxQDRHE-5" vertex="1">
          <mxGeometry x="45" y="194" width="10" height="86" as="geometry" />
        </mxCell>
        <mxCell id="ti7OjyQPhwodmMIkzD1--40" value="" style="html=1;points=[];perimeter=orthogonalPerimeter;outlineConnect=0;targetShapes=umlLifeline;portConstraint=eastwest;newEdgeStyle={&quot;edgeStyle&quot;:&quot;elbowEdgeStyle&quot;,&quot;elbow&quot;:&quot;vertical&quot;,&quot;curved&quot;:0,&quot;rounded&quot;:0};" vertex="1" parent="aM9ryv3xv72pqoxQDRHE-5">
          <mxGeometry x="45" y="298" width="10" height="40" as="geometry" />
        </mxCell>
        <mxCell id="aM9ryv3xv72pqoxQDRHE-9" value="request signup api" style="html=1;verticalAlign=bottom;endArrow=none;edgeStyle=elbowEdgeStyle;elbow=vertical;curved=0;rounded=0;startArrow=block;startFill=1;endFill=0;" parent="1" edge="1">
          <mxGeometry relative="1" as="geometry">
            <mxPoint x="618" y="360" as="sourcePoint" />
            <Array as="points">
              <mxPoint x="600" y="360" />
              <mxPoint x="760" y="260" />
            </Array>
            <mxPoint x="451.9999999999999" y="360" as="targetPoint" />
          </mxGeometry>
        </mxCell>
        <mxCell id="ti7OjyQPhwodmMIkzD1--1" value="" style="shape=umlLifeline;perimeter=lifelinePerimeter;whiteSpace=wrap;html=1;container=1;dropTarget=0;collapsible=0;recursiveResize=0;outlineConnect=0;portConstraint=eastwest;newEdgeStyle={&quot;edgeStyle&quot;:&quot;elbowEdgeStyle&quot;,&quot;elbow&quot;:&quot;vertical&quot;,&quot;curved&quot;:0,&quot;rounded&quot;:0};participant=umlActor;" vertex="1" parent="1">
          <mxGeometry x="121" y="160" width="20" height="460" as="geometry" />
        </mxCell>
        <mxCell id="ti7OjyQPhwodmMIkzD1--8" value="" style="html=1;points=[];perimeter=orthogonalPerimeter;outlineConnect=0;targetShapes=umlLifeline;portConstraint=eastwest;newEdgeStyle={&quot;edgeStyle&quot;:&quot;elbowEdgeStyle&quot;,&quot;elbow&quot;:&quot;vertical&quot;,&quot;curved&quot;:0,&quot;rounded&quot;:0};" vertex="1" parent="ti7OjyQPhwodmMIkzD1--1">
          <mxGeometry x="5" y="60" width="10" height="390" as="geometry" />
        </mxCell>
        <mxCell id="ti7OjyQPhwodmMIkzD1--3" value="&lt;font style=&quot;font-size: 14px;&quot;&gt;회원가입&lt;/font&gt;" style="text;html=1;strokeColor=none;fillColor=none;align=center;verticalAlign=middle;whiteSpace=wrap;rounded=0;" vertex="1" parent="1">
          <mxGeometry x="180" y="70" width="60" height="30" as="geometry" />
        </mxCell>
        <mxCell id="ti7OjyQPhwodmMIkzD1--4" value="&lt;p style=&quot;margin:0px;margin-top:4px;text-align:center;text-decoration:underline;&quot;&gt;&lt;b&gt;user:string&lt;/b&gt;&lt;/p&gt;&lt;hr&gt;&lt;p style=&quot;margin:0px;margin-left:8px;&quot;&gt;name = admin&lt;br&gt;username = admin1&lt;br&gt;password = admin123!@&lt;/p&gt;&lt;p style=&quot;margin:0px;margin-left:8px;&quot;&gt;email = admin@admin.com&lt;/p&gt;" style="verticalAlign=top;align=left;overflow=fill;fontSize=12;fontFamily=Helvetica;html=1;whiteSpace=wrap;" vertex="1" parent="1">
          <mxGeometry x="6" y="10" width="160" height="100" as="geometry" />
        </mxCell>
        <mxCell id="ti7OjyQPhwodmMIkzD1--5" value="WebBrowser" style="shape=umlLifeline;perimeter=lifelinePerimeter;whiteSpace=wrap;html=1;container=1;dropTarget=0;collapsible=0;recursiveResize=0;outlineConnect=0;portConstraint=eastwest;newEdgeStyle={&quot;edgeStyle&quot;:&quot;elbowEdgeStyle&quot;,&quot;elbow&quot;:&quot;vertical&quot;,&quot;curved&quot;:0,&quot;rounded&quot;:0};" vertex="1" parent="1">
          <mxGeometry x="221" y="160" width="100" height="460" as="geometry" />
        </mxCell>
        <mxCell id="ti7OjyQPhwodmMIkzD1--7" value="" style="html=1;points=[];perimeter=orthogonalPerimeter;outlineConnect=0;targetShapes=umlLifeline;portConstraint=eastwest;newEdgeStyle={&quot;edgeStyle&quot;:&quot;elbowEdgeStyle&quot;,&quot;elbow&quot;:&quot;vertical&quot;,&quot;curved&quot;:0,&quot;rounded&quot;:0};" vertex="1" parent="ti7OjyQPhwodmMIkzD1--5">
          <mxGeometry x="45" y="60" width="10" height="30" as="geometry" />
        </mxCell>
        <mxCell id="ti7OjyQPhwodmMIkzD1--6" value="DB" style="shape=umlLifeline;perimeter=lifelinePerimeter;whiteSpace=wrap;html=1;container=1;dropTarget=0;collapsible=0;recursiveResize=0;outlineConnect=0;portConstraint=eastwest;newEdgeStyle={&quot;edgeStyle&quot;:&quot;elbowEdgeStyle&quot;,&quot;elbow&quot;:&quot;vertical&quot;,&quot;curved&quot;:0,&quot;rounded&quot;:0};" vertex="1" parent="1">
          <mxGeometry x="763" y="160" width="100" height="460" as="geometry" />
        </mxCell>
        <mxCell id="ti7OjyQPhwodmMIkzD1--38" value="" style="html=1;points=[];perimeter=orthogonalPerimeter;outlineConnect=0;targetShapes=umlLifeline;portConstraint=eastwest;newEdgeStyle={&quot;edgeStyle&quot;:&quot;elbowEdgeStyle&quot;,&quot;elbow&quot;:&quot;vertical&quot;,&quot;curved&quot;:0,&quot;rounded&quot;:0};" vertex="1" parent="ti7OjyQPhwodmMIkzD1--6">
          <mxGeometry x="45" y="200" width="10" height="70" as="geometry" />
        </mxCell>
        <mxCell id="ti7OjyQPhwodmMIkzD1--16" value="" style="endArrow=block;endFill=1;html=1;edgeStyle=orthogonalEdgeStyle;align=left;verticalAlign=top;rounded=0;" edge="1" parent="1">
          <mxGeometry x="-1" relative="1" as="geometry">
            <mxPoint x="460" y="295" as="sourcePoint" />
            <mxPoint x="452" y="295.0057803468208" as="targetPoint" />
            <Array as="points">
              <mxPoint x="480" y="295" />
            </Array>
          </mxGeometry>
        </mxCell>
        <mxCell id="ti7OjyQPhwodmMIkzD1--27" value="invalidate" style="shape=umlFrame;whiteSpace=wrap;html=1;pointerEvents=0;fillColor=#f8cecc;strokeColor=#b85450;" vertex="1" parent="1">
          <mxGeometry x="20" y="274" width="480" height="56" as="geometry" />
        </mxCell>
        <mxCell id="ti7OjyQPhwodmMIkzD1--29" value="" style="html=1;verticalAlign=bottom;endArrow=open;dashed=1;endSize=8;edgeStyle=elbowEdgeStyle;elbow=vertical;curved=0;rounded=0;" edge="1" parent="1" source="ti7OjyQPhwodmMIkzD1--18" target="ti7OjyQPhwodmMIkzD1--28">
          <mxGeometry relative="1" as="geometry">
            <mxPoint x="505.0000000000001" y="309.16666666666674" as="sourcePoint" />
            <mxPoint x="320" y="309" as="targetPoint" />
            <Array as="points">
              <mxPoint x="370" y="300" />
            </Array>
          </mxGeometry>
        </mxCell>
        <mxCell id="ti7OjyQPhwodmMIkzD1--28" value="" style="html=1;points=[];perimeter=orthogonalPerimeter;outlineConnect=0;targetShapes=umlLifeline;portConstraint=eastwest;newEdgeStyle={&quot;edgeStyle&quot;:&quot;elbowEdgeStyle&quot;,&quot;elbow&quot;:&quot;vertical&quot;,&quot;curved&quot;:0,&quot;rounded&quot;:0};" vertex="1" parent="1">
          <mxGeometry x="266" y="285" width="10" height="35" as="geometry" />
        </mxCell>
        <mxCell id="ti7OjyQPhwodmMIkzD1--30" value="validate" style="shape=umlFrame;whiteSpace=wrap;html=1;pointerEvents=0;fillColor=#d5e8d4;strokeColor=#82b366;" vertex="1" parent="1">
          <mxGeometry x="20" y="340" width="820" height="290" as="geometry" />
        </mxCell>
        <mxCell id="ti7OjyQPhwodmMIkzD1--31" value="check username existence" style="html=1;verticalAlign=bottom;endArrow=none;edgeStyle=elbowEdgeStyle;elbow=vertical;curved=0;rounded=0;startArrow=block;startFill=1;endFill=0;" edge="1" parent="1">
          <mxGeometry x="-0.1214" relative="1" as="geometry">
            <mxPoint x="809" y="395.9999999999999" as="sourcePoint" />
            <Array as="points">
              <mxPoint x="803" y="396" />
              <mxPoint x="898" y="294" />
            </Array>
            <mxPoint x="628" y="394" as="targetPoint" />
            <mxPoint as="offset" />
          </mxGeometry>
        </mxCell>
        <mxCell id="ti7OjyQPhwodmMIkzD1--34" value="&lt;font style=&quot;font-size: 11px;&quot;&gt;show which is invalidated value&lt;/font&gt;" style="text;html=1;align=center;verticalAlign=middle;resizable=0;points=[];autosize=1;strokeColor=none;fillColor=none;" vertex="1" parent="1">
          <mxGeometry x="272" y="278" width="180" height="30" as="geometry" />
        </mxCell>
        <mxCell id="ti7OjyQPhwodmMIkzD1--33" value="check validate once more" style="html=1;align=left;spacingLeft=2;endArrow=block;rounded=0;edgeStyle=orthogonalEdgeStyle;curved=0;rounded=0;" edge="1" target="ti7OjyQPhwodmMIkzD1--40" parent="1">
          <mxGeometry x="-1" y="9" relative="1" as="geometry">
            <mxPoint x="628.41" y="359.9999999999999" as="sourcePoint" />
            <Array as="points">
              <mxPoint x="660" y="360" />
              <mxPoint x="660" y="470" />
            </Array>
            <mxPoint x="628" y="390.02222222222224" as="targetPoint" />
            <mxPoint as="offset" />
          </mxGeometry>
        </mxCell>
        <mxCell id="ti7OjyQPhwodmMIkzD1--41" value="duplicated" style="shape=umlFrame;whiteSpace=wrap;html=1;pointerEvents=0;fillColor=#f8cecc;strokeColor=#b85450;" vertex="1" parent="1">
          <mxGeometry x="40" y="447" width="710" height="58" as="geometry" />
        </mxCell>
        <mxCell id="ti7OjyQPhwodmMIkzD1--42" value="check duplication" style="html=1;align=left;spacingLeft=2;endArrow=block;rounded=0;edgeStyle=orthogonalEdgeStyle;curved=0;rounded=0;" edge="1" parent="1" source="aM9ryv3xv72pqoxQDRHE-6">
          <mxGeometry x="0.4262" relative="1" as="geometry">
            <mxPoint x="636.41" y="429.9999999999999" as="sourcePoint" />
            <Array as="points">
              <mxPoint x="656" y="430" />
              <mxPoint x="656" y="480" />
            </Array>
            <mxPoint x="628" y="480" as="targetPoint" />
            <mxPoint as="offset" />
          </mxGeometry>
        </mxCell>
        <mxCell id="ti7OjyQPhwodmMIkzD1--46" value="" style="html=1;points=[];perimeter=orthogonalPerimeter;outlineConnect=0;targetShapes=umlLifeline;portConstraint=eastwest;newEdgeStyle={&quot;edgeStyle&quot;:&quot;elbowEdgeStyle&quot;,&quot;elbow&quot;:&quot;vertical&quot;,&quot;curved&quot;:0,&quot;rounded&quot;:0};" vertex="1" parent="1">
          <mxGeometry x="442" y="454" width="10" height="46" as="geometry" />
        </mxCell>
        <mxCell id="ti7OjyQPhwodmMIkzD1--49" value="" style="html=1;points=[];perimeter=orthogonalPerimeter;outlineConnect=0;targetShapes=umlLifeline;portConstraint=eastwest;newEdgeStyle={&quot;edgeStyle&quot;:&quot;elbowEdgeStyle&quot;,&quot;elbow&quot;:&quot;vertical&quot;,&quot;curved&quot;:0,&quot;rounded&quot;:0};" vertex="1" parent="1">
          <mxGeometry x="266" y="473" width="10" height="20" as="geometry" />
        </mxCell>
        <mxCell id="ti7OjyQPhwodmMIkzD1--50" value="not duplicated" style="shape=umlFrame;whiteSpace=wrap;html=1;pointerEvents=0;fillColor=#d5e8d4;strokeColor=#82b366;width=80;height=30;" vertex="1" parent="1">
          <mxGeometry x="40" y="520" width="790" height="100" as="geometry" />
        </mxCell>
        <mxCell id="ti7OjyQPhwodmMIkzD1--47" value="show duplicated / invalidated &lt;br&gt;input error" style="html=1;verticalAlign=bottom;endArrow=open;dashed=1;endSize=8;edgeStyle=elbowEdgeStyle;elbow=vertical;curved=0;rounded=0;" edge="1" parent="1" target="ti7OjyQPhwodmMIkzD1--8">
          <mxGeometry x="0.1478" relative="1" as="geometry">
            <mxPoint x="440.95" y="479.63" as="sourcePoint" />
            <mxPoint x="277.9954545454545" y="479.63" as="targetPoint" />
            <mxPoint as="offset" />
            <Array as="points">
              <mxPoint x="450.95" y="479.63" />
            </Array>
          </mxGeometry>
        </mxCell>
        <mxCell id="ti7OjyQPhwodmMIkzD1--54" value="" style="html=1;points=[];perimeter=orthogonalPerimeter;outlineConnect=0;targetShapes=umlLifeline;portConstraint=eastwest;newEdgeStyle={&quot;edgeStyle&quot;:&quot;elbowEdgeStyle&quot;,&quot;elbow&quot;:&quot;vertical&quot;,&quot;curved&quot;:0,&quot;rounded&quot;:0};" vertex="1" parent="1">
          <mxGeometry x="808" y="527" width="10" height="60" as="geometry" />
        </mxCell>
        <mxCell id="ti7OjyQPhwodmMIkzD1--55" value="save userData" style="html=1;verticalAlign=bottom;startArrow=none;endArrow=block;startSize=8;edgeStyle=elbowEdgeStyle;elbow=vertical;curved=0;rounded=0;startFill=0;" edge="1" parent="1">
          <mxGeometry x="0.0102" relative="1" as="geometry">
            <mxPoint x="620" y="551.47" as="sourcePoint" />
            <mxPoint x="810" y="551.47" as="targetPoint" />
            <Array as="points">
              <mxPoint x="720" y="551.47" />
            </Array>
            <mxPoint as="offset" />
          </mxGeometry>
        </mxCell>
        <mxCell id="ti7OjyQPhwodmMIkzD1--56" value="return select query result" style="html=1;verticalAlign=bottom;endArrow=open;dashed=1;endSize=8;edgeStyle=elbowEdgeStyle;elbow=vertical;curved=0;rounded=0;" edge="1" parent="1">
          <mxGeometry x="-0.0393" y="-2" relative="1" as="geometry">
            <mxPoint x="807" y="578.2413793103449" as="sourcePoint" />
            <mxPoint x="626" y="578.1" as="targetPoint" />
            <mxPoint as="offset" />
          </mxGeometry>
        </mxCell>
        <mxCell id="ti7OjyQPhwodmMIkzD1--58" value="response exceptPassword" style="html=1;verticalAlign=bottom;endArrow=open;dashed=1;endSize=8;edgeStyle=elbowEdgeStyle;elbow=vertical;curved=0;rounded=0;" edge="1" parent="1">
          <mxGeometry x="0.0833" relative="1" as="geometry">
            <mxPoint x="628" y="587.4413793103449" as="sourcePoint" />
            <mxPoint x="447" y="587.3" as="targetPoint" />
            <mxPoint as="offset" />
          </mxGeometry>
        </mxCell>
        <mxCell id="ti7OjyQPhwodmMIkzD1--57" value="" style="html=1;points=[];perimeter=orthogonalPerimeter;outlineConnect=0;targetShapes=umlLifeline;portConstraint=eastwest;newEdgeStyle={&quot;edgeStyle&quot;:&quot;elbowEdgeStyle&quot;,&quot;elbow&quot;:&quot;vertical&quot;,&quot;curved&quot;:0,&quot;rounded&quot;:0};" vertex="1" parent="1">
          <mxGeometry x="618" y="527" width="10" height="83" as="geometry" />
        </mxCell>
        <mxCell id="ti7OjyQPhwodmMIkzD1--59" value="redirect to login page" style="html=1;verticalAlign=bottom;endArrow=open;dashed=1;endSize=8;edgeStyle=elbowEdgeStyle;elbow=vertical;curved=0;rounded=0;" edge="1" parent="1">
          <mxGeometry x="-0.0769" relative="1" as="geometry">
            <mxPoint x="440" y="588.02" as="sourcePoint" />
            <mxPoint x="137" y="588.02" as="targetPoint" />
            <mxPoint as="offset" />
            <Array as="points">
              <mxPoint x="350" y="588.02" />
            </Array>
          </mxGeometry>
        </mxCell>
        <mxCell id="ti7OjyQPhwodmMIkzD1--67" value="" style="html=1;points=[];perimeter=orthogonalPerimeter;outlineConnect=0;targetShapes=umlLifeline;portConstraint=eastwest;newEdgeStyle={&quot;edgeStyle&quot;:&quot;elbowEdgeStyle&quot;,&quot;elbow&quot;:&quot;vertical&quot;,&quot;curved&quot;:0,&quot;rounded&quot;:0};" vertex="1" parent="1">
          <mxGeometry x="442" y="571" width="10" height="39" as="geometry" />
        </mxCell>
      </root>
    </mxGraphModel>
  </diagram>
</mxfile>
